<?xml version="1.0" encoding="UTF-8" standalone="no"?>
<!-- Created with Inkscape (http://www.inkscape.org/) -->

<svg
   width="210mm"
   height="210mm"
   viewBox="0 0 210 210"
   version="1.1"
   id="svg5"
   xml:space="preserve"
   inkscape:version="1.2.1 (9c6d41e410, 2022-07-14)"
   sodipodi:docname="lunarPenguin_avatar.svg"
   xmlns:inkscape="http://www.inkscape.org/namespaces/inkscape"
   xmlns:sodipodi="http://sodipodi.sourceforge.net/DTD/sodipodi-0.dtd"
   xmlns="http://www.w3.org/2000/svg"
   xmlns:svg="http://www.w3.org/2000/svg"><sodipodi:namedview
     id="namedview7"
     pagecolor="#505050"
     bordercolor="#eeeeee"
     borderopacity="1"
     inkscape:showpageshadow="0"
     inkscape:pageopacity="0"
     inkscape:pagecheckerboard="false"
     inkscape:deskcolor="#505050"
     inkscape:document-units="mm"
     showgrid="false"
     inkscape:zoom="8.4561559"
     inkscape:cx="359.56054"
     inkscape:cy="123.46035"
     inkscape:window-width="1920"
     inkscape:window-height="1011"
     inkscape:window-x="0"
     inkscape:window-y="32"
     inkscape:window-maximized="1"
     inkscape:current-layer="layer2" /><defs
     id="defs2"><linearGradient
       id="linearGradient11147"
       inkscape:swatch="solid"><stop
         style="stop-color:#223744;stop-opacity:1;"
         offset="0"
         id="stop11145" /></linearGradient><filter
       inkscape:label="Blur Double"
       inkscape:menu="Blurs"
       inkscape:menu-tooltip="Overlays two copies with different blur amounts and modifiable blend and composite"
       style="color-interpolation-filters:sRGB;"
       id="filter6672"
       x="-0.083101804"
       y="-0.067520216"
       width="1.1662036"
       height="1.1350404"><feGaussianBlur
         stdDeviation="5"
         result="fbSourceGraphic"
         id="feGaussianBlur6664" /><feGaussianBlur
         stdDeviation="0.01"
         in="SourceGraphic"
         result="result1"
         id="feGaussianBlur6666" /><feComposite
         in2="result1"
         operator="arithmetic"
         in="fbSourceGraphic"
         k2="0.5"
         k3="0.5"
         result="result2"
         id="feComposite6668" /><feBlend
         in2="fbSourceGraphic"
         mode="normal"
         result="result3"
         id="feBlend6670" /></filter><filter
       inkscape:label="Blur Double"
       inkscape:menu="Blurs"
       inkscape:menu-tooltip="Overlays two copies with different blur amounts and modifiable blend and composite"
       style="color-interpolation-filters:sRGB;"
       id="filter6797"
       x="-0.058665105"
       y="-0.058665105"
       width="1.1173302"
       height="1.1173302"><feGaussianBlur
         stdDeviation="5"
         result="fbSourceGraphic"
         id="feGaussianBlur6789" /><feGaussianBlur
         stdDeviation="0.01"
         in="SourceGraphic"
         result="result1"
         id="feGaussianBlur6791" /><feComposite
         in2="result1"
         operator="arithmetic"
         in="fbSourceGraphic"
         k2="0.5"
         k3="0.5"
         result="result2"
         id="feComposite6793" /><feBlend
         in2="fbSourceGraphic"
         mode="normal"
         result="result3"
         id="feBlend6795" /></filter><filter
       inkscape:label="Blur"
       inkscape:menu="Materials"
       inkscape:menu-tooltip="Eroded metal texture with ridges, grooves, holes and bumps"
       style="color-interpolation-filters:sRGB;"
       id="filter17782"
       x="-1.8104425"
       y="-1.9011998"
       width="4.620885"
       height="4.8023995"><feGaussianBlur
         result="result0"
         in="SourceGraphic"
         stdDeviation="1"
         id="feGaussianBlur17758" /><feTurbulence
         type="turbulence"
         baseFrequency="0.057"
         seed="4"
         numOctaves="4"
         result="result1"
         id="feTurbulence17760" /><feDisplacementMap
         xChannelSelector="R"
         in2="result1"
         result="result91"
         id="feDisplacementMap17762" /><feComposite
         result="result2"
         operator="out"
         in="result0"
         in2="result91"
         id="feComposite17764" /><feComposite
         k1="0.1"
         k3="1.2"
         in2="result2"
         in="SourceAlpha"
         operator="arithmetic"
         result="result5"
         id="feComposite17766" /><feBlend
         result="fbSourceGraphic"
         mode="multiply"
         in2="result5"
         id="feBlend17768" /><feGaussianBlur
         stdDeviation="3"
         in="fbSourceGraphic"
         result="result0"
         id="feGaussianBlur17770" /><feSpecularLighting
         in="result0"
         result="result1"
         lighting-color="rgb(254,230,93)"
         surfaceScale="3"
         specularConstant="0.4"
         specularExponent="15"
         id="feSpecularLighting17774"><fePointLight
           x="-5000"
           y="-10000"
           z="20000"
           id="fePointLight17772" /></feSpecularLighting><feComposite
         in2="fbSourceGraphic"
         in="result1"
         result="result2"
         operator="in"
         id="feComposite17776" /><feComposite
         k1="-1"
         in="fbSourceGraphic"
         result="result4"
         operator="arithmetic"
         k2="2.5"
         k3="3.5"
         in2="result2"
         id="feComposite17778" /><feBlend
         mode="multiply"
         in2="result4"
         id="feBlend17780"
         result="fbSourceGraphic" /><feColorMatrix
         result="fbSourceGraphicAlpha"
         in="fbSourceGraphic"
         values="0 0 0 -1 0 0 0 0 -1 0 0 0 0 -1 0 0 0 0 1 0"
         id="feColorMatrix17968" /><feGaussianBlur
         id="feGaussianBlur17970"
         stdDeviation="0.64 0.79"
         result="blur"
         in="fbSourceGraphic" /><feColorMatrix
         id="feColorMatrix17972"
         values="1 0 0 0 0 0 1 0 0 0 0 0 1 0 0 0 0 0 50 0 "
         result="colormatrix" /><feComposite
         in2="fbSourceGraphic"
         id="feComposite17974"
         in="colormatrix"
         operator="in" /></filter></defs><g
     inkscape:groupmode="layer"
     id="layer2"
     inkscape:label="paths"><path
       style="fill:#223744;stroke-width:0.21;fill-opacity:0.3764706;filter:url(#filter6797)"
       d="m 82.53,206.22 v -1.26 h -1.05 -1.05 v -1.26 -1.26 h 1.05 1.05 v -1.155 -1.155 h 1.155 1.155 v -1.05 -1.05 h 1.26 1.26 v -1.155 -1.155 h 1.26 1.26 v -1.26 -1.26 h 1.155 1.155 v -2.415 -2.415 H 91.035 89.88 v -1.05 -1.05 h -2.52 -2.52 v 1.05 1.05 H 83.685 82.53 v 1.155 1.155 h -1.05 -1.05 v 1.26 1.26 H 79.275 78.12 v 1.26 1.26 H 74.445 70.77 v -3.675 -3.675 h 1.155 1.155 v -1.05 -1.05 h 1.26 1.26 v -1.155 -1.155 h 1.26 1.26 v -1.26 -1.26 h 1.155 1.155 v -2.415 -2.415 H 79.275 78.12 v -1.05 -1.05 H 75.6 73.08 v 1.05 1.05 H 71.925 70.77 v 1.155 1.155 h -1.05 -1.05 v 1.26 1.26 H 67.515 66.36 v 1.26 1.26 H 65.1 63.84 v 1.155 1.155 h -1.26 -1.26 v -1.155 -1.155 H 60.165 59.01 v -2.52 -2.52 h 1.155 1.155 v -1.155 -1.155 h 1.26 1.26 v -1.05 -1.05 h 1.26 1.26 v -1.155 -1.155 h 1.155 1.155 v -1.26 -1.26 h 1.05 1.05 v -1.26 -1.26 h -1.05 -1.05 v -1.155 -1.155 H 67.515 66.36 v -1.05 -1.05 h -2.52 -2.52 v 1.05 1.05 H 60.165 59.01 v 1.155 1.155 h -1.05 -1.05 v 1.26 1.26 H 55.755 54.6 v 1.26 1.26 h -1.26 -1.26 v 1.155 1.155 H 49.665 47.25 v -3.675 -3.675 h 1.155 1.155 v -1.155 -1.155 h 1.26 1.26 v -1.05 -1.05 h 1.26 1.26 v -1.155 -1.155 h 1.155 1.155 v -1.26 -1.26 h 1.05 1.05 v -1.26 -1.26 h -1.05 -1.05 v -1.155 -1.155 H 55.755 54.6 v -1.05 -1.05 h -1.26 -1.26 v 1.05 1.05 h -1.26 -1.26 v 1.155 1.155 H 48.405 47.25 v 1.26 1.26 H 46.2 45.15 v 1.26 1.26 H 43.995 42.84 v 1.155 1.155 H 39.165 35.49 v -3.675 -3.675 h 1.155 1.155 v -1.155 -1.155 h 1.26 1.26 v -1.05 -1.05 h 1.26 1.26 v -1.155 -1.155 h 1.155 1.155 v -1.26 -1.26 h 1.05 1.05 v -1.26 -1.26 H 46.2 45.15 v -1.155 -1.155 H 43.995 42.84 v -1.05 -1.05 h -1.26 -1.26 v 1.05 1.05 H 39.06 37.8 v 1.155 1.155 H 36.645 35.49 v 1.26 1.26 h -1.05 -1.05 v 1.26 1.26 H 32.235 31.08 v 1.155 1.155 H 27.405 23.73 v -2.415 -2.415 h 1.155 1.155 v -1.26 -1.26 h 1.26 1.26 v -1.155 -1.155 h 1.26 1.26 v -1.05 -1.05 h 1.155 1.155 v -1.155 -1.155 h 1.05 1.05 v -2.52 -2.52 h -1.05 -1.05 v -1.155 -1.155 H 32.235 31.08 v -1.05 -1.05 h -1.26 -1.26 v 1.05 1.05 H 27.3 26.04 v 1.155 1.155 H 24.885 23.73 v 1.26 1.26 h -1.05 -1.05 v 1.26 1.26 H 20.475 19.32 v 1.155 1.155 H 16.8 14.28 v -1.155 -1.155 H 13.125 11.97 v -1.26 -1.26 h 1.155 1.155 v -1.26 -1.26 h 1.26 1.26 v -1.155 -1.155 h 1.26 1.26 v -1.05 -1.05 h 1.155 1.155 v -1.155 -1.155 h 1.05 1.05 v -2.52 -2.52 h -1.05 -1.05 v -1.155 -1.155 H 19.215 16.8 v 1.155 1.155 h -1.26 -1.26 v 1.26 1.26 H 13.125 11.97 v 1.26 1.26 H 10.92 9.87 v 1.155 1.155 H 6.195 2.52 v -3.675 -3.675 h 1.26 1.26 v -1.155 -1.155 H 6.3 7.56 v -1.05 -1.05 H 8.715 9.87 v -1.155 -1.155 h 1.05 1.05 v -3.675 -3.675 H 10.92 9.87 V 105 103.95 h 1.05 1.05 V 100.275 96.6 H 10.92 9.87 V 95.445 94.29 H 8.715 7.56 V 93.24 92.19 H 6.3 5.04 V 91.035 89.88 H 3.78 2.52 V 86.205 82.53 H 6.195 9.87 v 1.155 1.155 h 1.05 1.05 v 1.26 1.26 h 1.155 1.155 v 1.26 1.26 h 1.26 1.26 v 1.155 1.155 h 2.415 2.415 V 91.035 89.88 h 1.05 1.05 V 87.36 84.84 H 22.68 21.63 V 83.685 82.53 H 20.475 19.32 V 81.48 80.43 H 18.06 16.8 V 79.275 78.12 H 15.54 14.28 V 76.86 75.6 H 13.125 11.97 v -1.26 -1.26 h 1.155 1.155 V 71.925 70.77 h 2.52 2.52 v 1.155 1.155 h 1.155 1.155 v 1.26 1.26 h 1.05 1.05 v 1.26 1.26 h 1.155 1.155 v 1.155 1.155 h 1.26 1.26 v 1.05 1.05 h 1.26 1.26 v -1.05 -1.05 h 1.155 1.155 V 79.275 78.12 h 1.05 1.05 V 75.6 73.08 H 34.44 33.39 V 71.925 70.77 H 32.235 31.08 V 69.72 68.67 H 29.82 28.56 V 67.515 66.36 H 27.3 26.04 V 65.1 63.84 H 24.885 23.73 V 61.425 59.01 h 3.675 3.675 v 1.155 1.155 h 1.155 1.155 v 1.26 1.26 h 1.05 1.05 v 1.26 1.26 h 1.155 1.155 v 1.155 1.155 h 1.26 1.26 v 1.05 1.05 h 1.26 1.26 v -1.05 -1.05 h 1.155 1.155 V 67.515 66.36 h 1.05 1.05 V 65.1 63.84 H 46.2 45.15 V 62.58 61.32 H 43.995 42.84 V 60.165 59.01 H 41.58 40.32 V 57.96 56.91 H 39.06 37.8 V 55.755 54.6 H 36.645 35.49 V 50.925 47.25 h 3.675 3.675 v 1.155 1.155 h 1.155 1.155 v 1.26 1.26 h 1.05 1.05 v 1.26 1.26 h 1.155 1.155 v 1.155 1.155 h 1.26 1.26 v 1.05 1.05 h 1.26 1.26 v -1.05 -1.05 h 1.155 1.155 V 55.755 54.6 h 1.05 1.05 V 53.34 52.08 H 57.96 56.91 V 50.82 49.56 H 55.755 54.6 V 48.405 47.25 H 53.34 52.08 V 46.2 45.15 H 50.82 49.56 V 43.995 42.84 H 48.405 47.25 V 39.165 35.49 h 2.415 2.415 v 1.155 1.155 h 1.26 1.26 v 1.26 1.26 h 1.155 1.155 v 1.26 1.26 h 1.05 1.05 v 1.155 1.155 h 1.155 1.155 v 1.05 1.05 h 2.52 2.52 V 46.2 45.15 h 1.155 1.155 V 43.995 42.84 h 1.05 1.05 V 41.58 40.32 H 69.72 68.67 V 39.06 37.8 H 67.515 66.36 V 36.645 35.49 H 65.1 63.84 V 34.44 33.39 H 62.58 61.32 V 32.235 31.08 H 60.165 59.01 v -2.52 -2.52 h 1.155 1.155 V 24.885 23.73 h 1.26 1.26 v 1.155 1.155 h 1.26 1.26 v 1.26 1.26 h 1.155 1.155 v 1.26 1.26 h 1.05 1.05 v 1.155 1.155 h 1.155 1.155 v 1.05 1.05 h 2.52 2.52 v -1.05 -1.05 h 1.155 1.155 V 30.975 28.56 H 79.275 78.12 V 27.3 26.04 H 76.86 75.6 V 24.885 23.73 H 74.34 73.08 V 22.68 21.63 H 71.925 70.77 V 17.955 14.28 h 3.675 3.675 v 1.26 1.26 h 1.155 1.155 v 1.26 1.26 h 1.05 1.05 v 1.155 1.155 h 1.155 1.155 v 1.05 1.05 h 2.52 2.52 v -1.05 -1.05 h 1.155 1.155 V 19.215 16.8 H 91.035 89.88 V 15.54 14.28 H 88.62 87.36 V 13.125 11.97 H 86.1 84.84 V 10.92 9.87 H 83.685 82.53 V 8.715 7.56 H 81.48 80.43 V 6.3 5.04 h 1.05 1.05 V 3.78 2.52 h 2.415 2.415 v 1.26 1.26 h 1.26 1.26 V 6.3 7.56 h 1.155 1.155 V 8.715 9.87 h 1.05 1.05 v 1.05 1.05 h 1.155 1.155 v 1.155 1.155 h 1.26 1.26 V 13.125 11.97 h 2.415 2.415 V 10.92 9.87 h 1.05 1.05 v 1.05 1.05 h 1.155 1.155 v 1.155 1.155 h 1.26 1.26 V 13.125 11.97 h 1.26 1.26 V 10.92 9.87 h 1.155 1.155 V 8.715 7.56 h 1.05 1.05 V 6.3 5.04 h 1.155 1.155 V 3.78 2.52 h 3.675 3.675 V 6.195 9.87 h -1.155 -1.155 v 1.05 1.05 h -1.26 -1.26 v 1.155 1.155 h -1.26 -1.26 v 1.26 1.26 h -1.155 -1.155 v 1.26 1.26 h -1.05 -1.05 v 1.155 1.155 h 1.05 1.05 v 1.05 1.05 h 1.155 1.155 v 1.155 1.155 h 1.26 1.26 V 24.885 23.73 h 1.26 1.26 v -1.05 -1.05 h 1.155 1.155 V 20.475 19.32 h 1.05 1.05 V 18.06 16.8 h 1.155 1.155 v -1.26 -1.26 h 3.675 3.675 v 2.52 2.52 h -1.155 -1.155 v 1.155 1.155 h -1.26 -1.26 v 1.05 1.05 h -1.26 -1.26 v 1.155 1.155 h -1.155 -1.155 v 1.26 1.26 h -1.05 -1.05 v 2.415 2.415 h 1.05 1.05 v 1.05 1.05 h 3.675 3.675 v -1.05 -1.05 h 1.155 1.155 V 32.235 31.08 h 1.05 1.05 v -1.26 -1.26 h 1.155 1.155 V 27.3 26.04 h 1.26 1.26 V 24.885 23.73 h 1.26 1.26 v 1.155 1.155 h 1.155 1.155 v 2.52 2.52 h -1.155 -1.155 v 1.155 1.155 h -1.26 -1.26 v 1.05 1.05 h -1.26 -1.26 v 1.155 1.155 h -1.155 -1.155 v 1.26 1.26 h -1.05 -1.05 v 2.415 2.415 h 1.05 1.05 v 1.05 1.05 h 2.415 2.415 V 46.2 45.15 h 1.26 1.26 V 43.995 42.84 h 1.155 1.155 v -1.26 -1.26 h 1.05 1.05 V 39.06 37.8 h 1.155 1.155 V 36.645 35.49 h 2.52 2.52 v 1.155 1.155 h 1.155 1.155 v 2.52 2.52 h -1.155 -1.155 v 1.155 1.155 h -1.26 -1.26 v 1.05 1.05 h -1.26 -1.26 v 1.155 1.155 h -1.155 -1.155 v 1.26 1.26 h -1.05 -1.05 v 2.415 2.415 h 1.05 1.05 v 1.05 1.05 h 2.415 2.415 v -1.05 -1.05 h 1.26 1.26 V 55.755 54.6 h 1.155 1.155 v -1.26 -1.26 h 1.05 1.05 v -1.26 -1.26 h 1.155 1.155 V 48.405 47.25 h 2.52 2.52 v 1.155 1.155 h 1.155 1.155 v 1.26 1.26 h -1.155 -1.155 v 1.26 1.26 h -1.26 -1.26 v 1.155 1.155 h -1.26 -1.26 v 1.05 1.05 h -1.155 -1.155 v 1.155 1.155 h -1.05 -1.05 v 3.675 3.675 h 1.05 1.05 v 1.05 1.05 h 2.415 2.415 v -1.05 -1.05 h 1.26 1.26 V 67.515 66.36 h 1.155 1.155 V 65.1 63.84 h 1.05 1.05 v -1.26 -1.26 h 1.155 1.155 V 60.165 59.01 h 2.52 2.52 v 3.675 3.675 h -1.26 -1.26 v 1.155 1.155 h -1.26 -1.26 v 1.05 1.05 h -1.155 -1.155 v 1.155 1.155 h -1.05 -1.05 v 1.26 1.26 h -1.155 -1.155 v 1.26 1.26 h 1.155 1.155 v 1.155 1.155 h 1.05 1.05 v 1.05 1.05 h 1.155 1.155 v -1.05 -1.05 h 1.26 1.26 V 79.275 78.12 h 1.26 1.26 V 76.86 75.6 h 1.155 1.155 v -1.26 -1.26 h 1.05 1.05 V 71.925 70.77 h 3.675 3.675 v 3.675 3.675 h -1.26 -1.26 v 1.155 1.155 h -1.26 -1.26 v 1.05 1.05 h -1.155 -1.155 v 1.155 1.155 h -1.05 -1.05 v 1.26 1.26 h -1.155 -1.155 v 1.26 1.26 h 1.155 1.155 v 1.155 1.155 h 1.05 1.05 v 1.05 1.05 h 1.155 1.155 v -1.05 -1.05 h 1.26 1.26 V 91.035 89.88 h 1.26 1.26 v -1.26 -1.26 h 1.155 1.155 V 86.1 84.84 h 1.05 1.05 V 83.685 82.53 h 3.675 3.675 v 2.415 2.415 h -1.26 -1.26 v 1.26 1.26 h -1.26 -1.26 v 1.155 1.155 h -1.155 -1.155 v 1.05 1.05 h -1.05 -1.05 v 1.155 1.155 h -1.155 -1.155 v 2.52 2.52 h 1.155 1.155 v 3.36 3.36 h -1.155 -1.155 v 2.52 2.52 h 1.155 1.155 v 1.155 1.155 h 1.05 1.05 v 1.05 1.05 h 1.155 1.155 v 1.155 1.155 h 1.26 1.26 v 1.26 1.26 h 1.26 1.26 v 2.415 2.415 h -3.675 -3.675 v -1.155 -1.155 h -1.05 -1.05 v -1.26 -1.26 h -1.155 -1.155 v -1.26 -1.26 h -1.26 -1.26 v -1.155 -1.155 h -1.26 -1.26 v -1.05 -1.05 h -1.155 -1.155 v 1.05 1.05 h -1.05 -1.05 v 1.155 1.155 h -1.155 -1.155 v 1.26 1.26 h 1.155 1.155 v 1.26 1.26 h 1.05 1.05 v 1.155 1.155 h 1.155 1.155 v 1.05 1.05 h 1.26 1.26 v 1.155 1.155 h 1.26 1.26 v 3.675 3.675 h -3.675 -3.675 v -1.155 -1.155 h -1.05 -1.05 v -1.26 -1.26 h -1.155 -1.155 v -1.26 -1.26 h -1.26 -1.26 v -1.155 -1.155 h -1.26 -1.26 v -1.05 -1.05 h -1.155 -1.155 v 1.05 1.05 h -1.05 -1.05 v 1.155 1.155 h -1.155 -1.155 v 1.26 1.26 h 1.155 1.155 v 1.26 1.26 h 1.05 1.05 v 1.155 1.155 h 1.155 1.155 v 1.05 1.05 h 1.26 1.26 v 1.155 1.155 h 1.26 1.26 v 3.675 3.675 h -2.52 -2.52 v -1.155 -1.155 h -1.155 -1.155 v -1.26 -1.26 h -1.05 -1.05 v -1.26 -1.26 h -1.155 -1.155 v -1.155 -1.155 h -1.26 -1.26 v -1.05 -1.05 h -2.415 -2.415 v 1.05 1.05 h -1.05 -1.05 v 3.675 3.675 h 1.05 1.05 v 1.155 1.155 h 1.155 1.155 v 1.05 1.05 h 1.26 1.26 v 1.155 1.155 h 1.26 1.26 v 1.26 1.26 h 1.155 1.155 v 1.26 1.26 h -1.155 -1.155 v 1.155 1.155 h -2.52 -2.52 v -1.155 -1.155 h -1.155 -1.155 v -1.26 -1.26 h -1.05 -1.05 v -1.26 -1.26 h -1.155 -1.155 v -1.155 -1.155 h -1.26 -1.26 v -1.05 -1.05 h -2.415 -2.415 v 1.05 1.05 h -1.05 -1.05 v 2.415 2.415 h 1.05 1.05 v 1.26 1.26 h 1.155 1.155 v 1.155 1.155 h 1.26 1.26 v 1.05 1.05 h 1.26 1.26 v 1.155 1.155 h 1.155 1.155 v 2.52 2.52 h -1.155 -1.155 v 1.155 1.155 h -2.52 -2.52 v -1.155 -1.155 h -1.155 -1.155 v -1.26 -1.26 h -1.05 -1.05 v -1.26 -1.26 h -1.155 -1.155 v -1.155 -1.155 h -1.26 -1.26 v -1.05 -1.05 h -2.415 -2.415 v 1.05 1.05 h -1.05 -1.05 v 2.415 2.415 h 1.05 1.05 v 1.26 1.26 h 1.155 1.155 v 1.155 1.155 h 1.26 1.26 v 1.05 1.05 h 1.26 1.26 v 1.155 1.155 h 1.155 1.155 v 2.52 2.52 h -1.155 -1.155 v 1.155 1.155 h -1.26 -1.26 v -1.155 -1.155 h -1.26 -1.26 v -1.26 -1.26 h -1.155 -1.155 v -1.26 -1.26 h -1.05 -1.05 v -1.155 -1.155 h -1.155 -1.155 v -1.05 -1.05 h -3.675 -3.675 v 1.05 1.05 h -1.05 -1.05 v 2.415 2.415 h 1.05 1.05 v 1.26 1.26 h 1.155 1.155 v 1.155 1.155 h 1.26 1.26 v 1.05 1.05 h 1.26 1.26 v 1.155 1.155 h 1.155 1.155 v 2.52 2.52 h -3.675 -3.675 v -1.26 -1.26 h -1.155 -1.155 v -1.26 -1.26 h -1.05 -1.05 v -1.155 -1.155 h -1.155 -1.155 v -1.05 -1.05 h -1.26 -1.26 v -1.155 -1.155 h -1.26 -1.26 v 1.155 1.155 h -1.155 -1.155 v 1.05 1.05 h -1.05 -1.05 v 1.155 1.155 h 1.05 1.05 v 1.26 1.26 h 1.155 1.155 v 1.26 1.26 h 1.26 1.26 v 1.155 1.155 h 1.26 1.26 v 1.05 1.05 h 1.155 1.155 v 3.675 3.675 h -3.675 -3.675 v -1.26 -1.26 h -1.155 -1.155 v -1.26 -1.26 h -1.05 -1.05 v -1.155 -1.155 h -1.155 -1.155 v -1.05 -1.05 h -1.26 -1.26 v -1.155 -1.155 h -1.26 -1.26 v 1.155 1.155 h -1.155 -1.155 v 1.05 1.05 H 105 103.95 v -1.05 -1.05 h -2.415 -2.415 v -1.155 -1.155 H 97.86 96.6 v 1.155 1.155 H 95.445 94.29 v 1.05 1.05 h -1.05 -1.05 v 1.155 1.155 H 91.035 89.88 v 1.26 1.26 h -1.26 -1.26 v 1.26 1.26 H 84.945 82.53 Z m 23.52,-16.695 v -1.155 h 1.155 1.155 v -1.05 -1.05 h 1.26 1.26 v -1.155 -1.155 h 1.26 1.26 v -1.26 -1.26 h 1.155 1.155 v -1.26 -1.26 h 1.05 1.05 v -1.155 -1.155 h 1.155 1.155 v -1.05 -1.05 h 1.26 1.26 v -1.155 -1.155 h 1.26 1.26 v -1.26 -1.26 h 1.155 1.155 v -1.26 -1.26 h 1.05 1.05 v -1.155 -1.155 h 1.155 1.155 v -1.05 -1.05 h 1.26 1.26 v -1.155 -1.155 h 1.26 1.26 v -1.26 -1.26 h 1.155 1.155 v -1.26 -1.26 h 1.05 1.05 v -1.155 -1.155 h 1.155 1.155 v -1.05 -1.05 h 1.26 1.26 v -1.155 -1.155 h 1.26 1.26 v -1.26 -1.26 h 1.155 1.155 v -1.26 -1.26 h 1.05 1.05 v -1.155 -1.155 h 1.155 1.155 v -1.05 -1.05 h 1.26 1.26 v -1.155 -1.155 h 1.26 1.26 v -1.26 -1.26 h 1.155 1.155 v -1.26 -1.26 h 1.05 1.05 v -1.155 -1.155 h 1.155 1.155 v -1.05 -1.05 h 1.26 1.26 v -1.155 -1.155 h 1.26 1.26 v -1.26 -1.26 h 1.155 1.155 v -1.26 -1.26 h 1.05 1.05 v -1.155 -1.155 h 1.155 1.155 v -1.05 -1.05 h 1.26 1.26 v -1.155 -1.155 h 1.26 1.26 v -1.26 -1.26 h 1.155 1.155 v -1.26 -1.26 h 1.05 1.05 v -1.155 -1.155 h 1.155 1.155 V 105 103.95 h -1.155 -1.155 v -1.155 -1.155 h -1.05 -1.05 v -1.26 -1.26 h -1.155 -1.155 V 97.86 96.6 h -1.26 -1.26 V 95.445 94.29 h -1.26 -1.26 v -1.05 -1.05 h -1.155 -1.155 V 91.035 89.88 h -1.05 -1.05 V 88.62 87.36 H 173.355 172.2 V 86.1 84.84 h -1.26 -1.26 V 83.685 82.53 h -1.26 -1.26 v -1.05 -1.05 h -1.155 -1.155 V 79.275 78.12 h -1.05 -1.05 V 76.86 75.6 h -1.155 -1.155 v -1.26 -1.26 h -1.26 -1.26 V 71.925 70.77 h -1.26 -1.26 v -1.05 -1.05 h -1.155 -1.155 V 67.515 66.36 h -1.05 -1.05 V 65.1 63.84 h -1.155 -1.155 v -1.26 -1.26 h -1.26 -1.26 V 60.165 59.01 h -1.26 -1.26 v -1.05 -1.05 h -1.155 -1.155 V 55.755 54.6 h -1.05 -1.05 v -1.26 -1.26 h -1.155 -1.155 v -1.26 -1.26 h -1.26 -1.26 V 48.405 47.25 h -1.26 -1.26 V 46.2 45.15 h -1.155 -1.155 V 43.995 42.84 h -1.05 -1.05 v -1.26 -1.26 h -1.155 -1.155 V 39.06 37.8 h -1.26 -1.26 V 36.645 35.49 h -1.26 -1.26 v -1.05 -1.05 h -1.155 -1.155 V 32.235 31.08 h -1.05 -1.05 V 29.82 28.56 H 114.555 113.4 V 27.3 26.04 h -1.26 -1.26 V 24.885 23.73 h -1.26 -1.26 v -1.05 -1.05 h -1.155 -1.155 V 20.475 19.32 H 105 103.95 v 1.155 1.155 h -1.155 -1.155 v 1.05 1.05 h -1.26 -1.26 v 1.155 1.155 H 97.86 96.6 v 1.26 1.26 H 95.445 94.29 v 1.26 1.26 h -1.05 -1.05 v 1.155 1.155 H 91.035 89.88 v 1.05 1.05 H 88.62 87.36 V 36.645 37.8 H 86.1 84.84 v 1.26 1.26 H 83.685 82.53 v 1.26 1.26 h -1.05 -1.05 v 1.155 1.155 H 79.275 78.12 v 1.05 1.05 H 76.86 75.6 v 1.155 1.155 h -1.26 -1.26 v 1.26 1.26 H 71.925 70.77 v 1.26 1.26 h -1.05 -1.05 v 1.155 1.155 H 67.515 66.36 v 1.05 1.05 H 65.1 63.84 v 1.155 1.155 h -1.26 -1.26 v 1.26 1.26 H 60.165 59.01 v 1.26 1.26 h -1.05 -1.05 v 1.155 1.155 H 55.755 54.6 v 1.05 1.05 h -1.26 -1.26 v 1.155 1.155 h -1.26 -1.26 v 1.26 1.26 H 48.405 47.25 v 1.26 1.26 H 46.2 45.15 v 1.155 1.155 H 43.995 42.84 v 1.05 1.05 h -1.26 -1.26 v 1.155 1.155 H 39.06 37.8 v 1.26 1.26 H 36.645 35.49 v 1.26 1.26 h -1.05 -1.05 v 1.155 1.155 H 32.235 31.08 v 1.05 1.05 H 29.82 28.56 V 95.445 96.6 H 27.3 26.04 v 1.26 1.26 H 24.885 23.73 v 1.26 1.26 h -1.05 -1.05 v 1.155 1.155 H 20.475 19.32 v 1.05 1.05 h 1.155 1.155 v 1.155 1.155 h 1.05 1.05 v 1.26 1.26 h 1.155 1.155 v 1.26 1.26 h 1.26 1.26 v 1.155 1.155 h 1.26 1.26 v 1.05 1.05 h 1.155 1.155 v 1.155 1.155 h 1.05 1.05 v 1.26 1.26 h 1.155 1.155 v 1.26 1.26 h 1.26 1.26 v 1.155 1.155 h 1.26 1.26 v 1.05 1.05 h 1.155 1.155 v 1.155 1.155 h 1.05 1.05 v 1.26 1.26 h 1.155 1.155 v 1.26 1.26 h 1.26 1.26 v 1.155 1.155 h 1.26 1.26 v 1.05 1.05 h 1.155 1.155 v 1.155 1.155 h 1.05 1.05 v 1.26 1.26 h 1.155 1.155 v 1.26 1.26 h 1.26 1.26 v 1.155 1.155 h 1.26 1.26 v 1.05 1.05 h 1.155 1.155 v 1.155 1.155 h 1.05 1.05 v 1.26 1.26 h 1.155 1.155 v 1.26 1.26 h 1.26 1.26 v 1.155 1.155 h 1.26 1.26 v 1.05 1.05 h 1.155 1.155 v 1.155 1.155 h 1.05 1.05 v 1.26 1.26 h 1.155 1.155 v 1.26 1.26 h 1.26 1.26 v 1.155 1.155 h 1.26 1.26 v 1.05 1.05 h 1.155 1.155 v 1.155 1.155 h 1.05 1.05 v 1.26 1.26 h 1.155 1.155 v 1.26 1.26 h 1.26 1.26 v 1.155 1.155 h 1.26 1.26 v 1.05 1.05 h 1.155 1.155 v 1.155 1.155 h 1.05 1.05 z M 101.64,163.8 v -1.05 h -1.26 -1.26 v -1.155 -1.155 H 97.86 96.6 v -1.26 -1.26 H 95.445 94.29 v -1.26 -1.26 h -1.05 -1.05 v -1.155 -1.155 H 91.035 89.88 v -1.05 -1.05 h -1.26 -1.26 v -1.155 -1.155 H 86.1 84.84 v -1.26 -1.26 H 83.685 82.53 v -1.26 -1.26 h -1.05 -1.05 v -1.155 -1.155 H 79.275 78.12 v -1.05 -1.05 H 76.86 75.6 v -1.155 -1.155 h -1.26 -1.26 v -1.26 -1.26 H 71.925 70.77 v -1.26 -1.26 h -1.05 -1.05 v -1.155 -1.155 H 67.515 66.36 v -1.05 -1.05 H 65.1 63.84 v -1.155 -1.155 h -1.26 -1.26 v -1.26 -1.26 H 60.165 59.01 v -1.26 -1.26 h -1.05 -1.05 v -1.155 -1.155 H 55.755 54.6 v -1.05 -1.05 h -1.26 -1.26 v -1.155 -1.155 h -1.26 -1.26 v -1.26 -1.26 H 48.405 47.25 v -1.26 -1.26 H 46.2 45.15 V 105 101.64 h 1.05 1.05 v -1.26 -1.26 h 1.155 1.155 V 97.86 96.6 h 1.26 1.26 V 95.445 94.29 h 1.26 1.26 v -1.05 -1.05 h 1.155 1.155 V 91.035 89.88 h 1.05 1.05 v -1.26 -1.26 h 1.155 1.155 V 86.1 84.84 h 1.26 1.26 V 83.685 82.53 h 1.26 1.26 v -1.05 -1.05 h 1.155 1.155 V 79.275 78.12 h 1.05 1.05 V 76.86 75.6 h 1.155 1.155 v -1.26 -1.26 h 1.26 1.26 V 71.925 70.77 h 1.26 1.26 v -1.05 -1.05 h 1.155 1.155 V 67.515 66.36 h 1.05 1.05 V 65.1 63.84 h 1.155 1.155 v -1.26 -1.26 h 1.26 1.26 V 60.165 59.01 h 1.26 1.26 v -1.05 -1.05 h 1.155 1.155 V 55.755 54.6 h 1.05 1.05 v -1.26 -1.26 h 1.155 1.155 v -1.26 -1.26 h 1.26 1.26 V 48.405 47.25 h 1.26 1.26 V 46.2 45.15 h 3.36 3.36 v 1.05 1.05 h 1.26 1.26 v 1.155 1.155 h 1.26 1.26 v 1.26 1.26 h 1.155 1.155 v 1.26 1.26 h 1.05 1.05 v 1.155 1.155 h 1.155 1.155 v 1.05 1.05 h 1.26 1.26 v 1.155 1.155 h 1.26 1.26 v 1.26 1.26 h 1.155 1.155 v 1.26 1.26 h 1.05 1.05 v 1.155 1.155 h 1.155 1.155 v 1.05 1.05 h 1.26 1.26 v 1.155 1.155 h 1.26 1.26 v 1.26 1.26 h 1.155 1.155 v 1.26 1.26 h 1.05 1.05 v 1.155 1.155 h 1.155 1.155 v 1.05 1.05 h 1.26 1.26 v 1.155 1.155 h 1.26 1.26 v 1.26 1.26 h 1.155 1.155 v 1.26 1.26 h 1.05 1.05 v 1.155 1.155 h 1.155 1.155 v 1.05 1.05 h 1.26 1.26 v 1.155 1.155 h 1.26 1.26 v 1.26 1.26 h 1.155 1.155 v 1.26 1.26 h 1.05 1.05 v 3.36 3.36 h -1.05 -1.05 v 1.26 1.26 h -1.155 -1.155 v 1.26 1.26 h -1.26 -1.26 v 1.155 1.155 h -1.26 -1.26 v 1.05 1.05 h -1.155 -1.155 v 1.155 1.155 h -1.05 -1.05 v 1.26 1.26 h -1.155 -1.155 v 1.26 1.26 h -1.26 -1.26 v 1.155 1.155 h -1.26 -1.26 v 1.05 1.05 h -1.155 -1.155 v 1.155 1.155 h -1.05 -1.05 v 1.26 1.26 h -1.155 -1.155 v 1.26 1.26 h -1.26 -1.26 v 1.155 1.155 h -1.26 -1.26 v 1.05 1.05 h -1.155 -1.155 v 1.155 1.155 h -1.05 -1.05 v 1.26 1.26 h -1.155 -1.155 v 1.26 1.26 h -1.26 -1.26 v 1.155 1.155 h -1.26 -1.26 v 1.05 1.05 h -1.155 -1.155 v 1.155 1.155 h -1.05 -1.05 v 1.26 1.26 h -1.155 -1.155 v 1.26 1.26 h -1.26 -1.26 v 1.155 1.155 h -1.26 -1.26 v 1.05 1.05 H 105 101.64 Z m 4.41,-9.555 v -1.155 h 1.155 1.155 v -1.05 -1.05 h 1.26 1.26 v -1.155 -1.155 h 1.26 1.26 v -1.26 -1.26 h 1.155 1.155 v -1.26 -1.26 h 1.05 1.05 v -1.155 -1.155 h 1.155 1.155 v -1.05 -1.05 h 1.26 1.26 v -1.155 -1.155 h 1.26 1.26 v -1.26 -1.26 h 1.155 1.155 v -1.26 -1.26 h 1.05 1.05 v -1.155 -1.155 h 1.155 1.155 v -1.05 -1.05 h 1.26 1.26 v -1.155 -1.155 h 1.26 1.26 v -1.26 -1.26 h 1.155 1.155 v -1.26 -1.26 h 1.05 1.05 v -1.155 -1.155 h 1.155 1.155 v -1.05 -1.05 h 1.26 1.26 v -1.155 -1.155 h 1.26 1.26 v -1.26 -1.26 h 1.155 1.155 v -1.26 -1.26 h 1.05 1.05 v -1.155 -1.155 h 1.155 1.155 V 105 103.95 h -1.155 -1.155 v -1.155 -1.155 h -1.05 -1.05 v -1.26 -1.26 h -1.155 -1.155 V 97.86 96.6 h -1.26 -1.26 V 95.445 94.29 h -1.26 -1.26 v -1.05 -1.05 h -1.155 -1.155 V 91.035 89.88 h -1.05 -1.05 v -1.26 -1.26 h -1.155 -1.155 V 86.1 84.84 h -1.26 -1.26 V 83.685 82.53 h -1.26 -1.26 v -1.05 -1.05 h -1.155 -1.155 V 79.275 78.12 h -1.05 -1.05 V 76.86 75.6 h -1.155 -1.155 v -1.26 -1.26 h -1.26 -1.26 V 71.925 70.77 h -1.26 -1.26 v -1.05 -1.05 h -1.155 -1.155 V 67.515 66.36 h -1.05 -1.05 V 65.1 63.84 h -1.155 -1.155 v -1.26 -1.26 h -1.26 -1.26 V 60.165 59.01 h -1.26 -1.26 v -1.05 -1.05 h -1.155 -1.155 V 55.755 54.6 h -2.205 -2.205 v 1.155 1.155 h -1.26 -1.26 v 1.05 1.05 H 97.86 96.6 v 1.155 1.155 H 95.445 94.29 v 1.26 1.26 h -1.05 -1.05 v 1.26 1.26 H 91.035 89.88 v 1.155 1.155 h -1.26 -1.26 v 1.05 1.05 H 86.1 84.84 v 1.155 1.155 H 83.685 82.53 v 1.26 1.26 h -1.05 -1.05 v 1.26 1.26 H 79.275 78.12 v 1.155 1.155 H 76.86 75.6 v 1.05 1.05 h -1.26 -1.26 v 1.155 1.155 H 71.925 70.77 v 1.26 1.26 h -1.05 -1.05 v 1.26 1.26 H 67.515 66.36 v 1.155 1.155 H 65.1 63.84 v 1.05 1.05 H 62.58 61.32 V 95.445 96.6 H 60.165 59.01 v 1.26 1.26 h -1.05 -1.05 v 1.26 1.26 H 55.755 54.6 v 3.36 3.36 h 1.155 1.155 v 1.26 1.26 h 1.05 1.05 v 1.26 1.26 h 1.155 1.155 v 1.155 1.155 h 1.26 1.26 v 1.05 1.05 h 1.26 1.26 v 1.155 1.155 h 1.155 1.155 v 1.26 1.26 h 1.05 1.05 v 1.26 1.26 h 1.155 1.155 v 1.155 1.155 h 1.26 1.26 v 1.05 1.05 h 1.26 1.26 v 1.155 1.155 h 1.155 1.155 v 1.26 1.26 h 1.05 1.05 v 1.26 1.26 h 1.155 1.155 v 1.155 1.155 h 1.26 1.26 v 1.05 1.05 h 1.26 1.26 v 1.155 1.155 h 1.155 1.155 v 1.26 1.26 h 1.05 1.05 v 1.26 1.26 h 1.155 1.155 v 1.155 1.155 h 1.26 1.26 v 1.05 1.05 h 1.26 1.26 v 1.155 1.155 h 2.205 2.205 z"
       id="path457"
       inkscape:label="diamondBlur" /><path
       style="fill:#223744;stroke-width:0.21;fill-opacity:1"
       d="m 82.53,206.22 v -1.26 h -1.05 -1.05 v -1.26 -1.26 h 1.05 1.05 v -1.155 -1.155 h 1.155 1.155 v -1.05 -1.05 h 1.26 1.26 v -1.155 -1.155 h 1.26 1.26 v -1.26 -1.26 h 1.155 1.155 v -2.415 -2.415 H 91.035 89.88 v -1.05 -1.05 h -2.52 -2.52 v 1.05 1.05 H 83.685 82.53 v 1.155 1.155 h -1.05 -1.05 v 1.26 1.26 H 79.275 78.12 v 1.26 1.26 H 74.445 70.77 v -3.675 -3.675 h 1.155 1.155 v -1.05 -1.05 h 1.26 1.26 v -1.155 -1.155 h 1.26 1.26 v -1.26 -1.26 h 1.155 1.155 v -2.415 -2.415 H 79.275 78.12 v -1.05 -1.05 H 75.6 73.08 v 1.05 1.05 H 71.925 70.77 v 1.155 1.155 h -1.05 -1.05 v 1.26 1.26 H 67.515 66.36 v 1.26 1.26 H 65.1 63.84 v 1.155 1.155 h -1.26 -1.26 v -1.155 -1.155 H 60.165 59.01 v -2.52 -2.52 h 1.155 1.155 v -1.155 -1.155 h 1.26 1.26 v -1.05 -1.05 h 1.26 1.26 v -1.155 -1.155 h 1.155 1.155 v -1.26 -1.26 h 1.05 1.05 v -1.26 -1.26 h -1.05 -1.05 v -1.155 -1.155 H 67.515 66.36 v -1.05 -1.05 h -2.52 -2.52 v 1.05 1.05 H 60.165 59.01 v 1.155 1.155 h -1.05 -1.05 v 1.26 1.26 H 55.755 54.6 v 1.26 1.26 h -1.26 -1.26 v 1.155 1.155 H 49.665 47.25 v -3.675 -3.675 h 1.155 1.155 v -1.155 -1.155 h 1.26 1.26 v -1.05 -1.05 h 1.26 1.26 v -1.155 -1.155 h 1.155 1.155 v -1.26 -1.26 h 1.05 1.05 v -1.26 -1.26 h -1.05 -1.05 v -1.155 -1.155 H 55.755 54.6 v -1.05 -1.05 h -1.26 -1.26 v 1.05 1.05 h -1.26 -1.26 v 1.155 1.155 H 48.405 47.25 v 1.26 1.26 H 46.2 45.15 v 1.26 1.26 H 43.995 42.84 v 1.155 1.155 H 39.165 35.49 v -3.675 -3.675 h 1.155 1.155 v -1.155 -1.155 h 1.26 1.26 v -1.05 -1.05 h 1.26 1.26 v -1.155 -1.155 h 1.155 1.155 v -1.26 -1.26 h 1.05 1.05 v -1.26 -1.26 H 46.2 45.15 v -1.155 -1.155 H 43.995 42.84 v -1.05 -1.05 h -1.26 -1.26 v 1.05 1.05 H 39.06 37.8 v 1.155 1.155 H 36.645 35.49 v 1.26 1.26 h -1.05 -1.05 v 1.26 1.26 H 32.235 31.08 v 1.155 1.155 H 27.405 23.73 v -2.415 -2.415 h 1.155 1.155 v -1.26 -1.26 h 1.26 1.26 v -1.155 -1.155 h 1.26 1.26 v -1.05 -1.05 h 1.155 1.155 v -1.155 -1.155 h 1.05 1.05 v -2.52 -2.52 h -1.05 -1.05 v -1.155 -1.155 H 32.235 31.08 v -1.05 -1.05 h -1.26 -1.26 v 1.05 1.05 H 27.3 26.04 v 1.155 1.155 H 24.885 23.73 v 1.26 1.26 h -1.05 -1.05 v 1.26 1.26 H 20.475 19.32 v 1.155 1.155 H 16.8 14.28 v -1.155 -1.155 H 13.125 11.97 v -1.26 -1.26 h 1.155 1.155 v -1.26 -1.26 h 1.26 1.26 v -1.155 -1.155 h 1.26 1.26 v -1.05 -1.05 h 1.155 1.155 v -1.155 -1.155 h 1.05 1.05 v -2.52 -2.52 h -1.05 -1.05 v -1.155 -1.155 H 19.215 16.8 v 1.155 1.155 h -1.26 -1.26 v 1.26 1.26 H 13.125 11.97 v 1.26 1.26 H 10.92 9.87 v 1.155 1.155 H 6.195 2.52 v -3.675 -3.675 h 1.26 1.26 v -1.155 -1.155 H 6.3 7.56 v -1.05 -1.05 H 8.715 9.87 v -1.155 -1.155 h 1.05 1.05 v -3.675 -3.675 H 10.92 9.87 V 105 103.95 h 1.05 1.05 V 100.275 96.6 H 10.92 9.87 V 95.445 94.29 H 8.715 7.56 V 93.24 92.19 H 6.3 5.04 V 91.035 89.88 H 3.78 2.52 V 86.205 82.53 H 6.195 9.87 v 1.155 1.155 h 1.05 1.05 v 1.26 1.26 h 1.155 1.155 v 1.26 1.26 h 1.26 1.26 v 1.155 1.155 h 2.415 2.415 V 91.035 89.88 h 1.05 1.05 V 87.36 84.84 H 22.68 21.63 V 83.685 82.53 H 20.475 19.32 V 81.48 80.43 H 18.06 16.8 V 79.275 78.12 H 15.54 14.28 V 76.86 75.6 H 13.125 11.97 v -1.26 -1.26 h 1.155 1.155 V 71.925 70.77 h 2.52 2.52 v 1.155 1.155 h 1.155 1.155 v 1.26 1.26 h 1.05 1.05 v 1.26 1.26 h 1.155 1.155 v 1.155 1.155 h 1.26 1.26 v 1.05 1.05 h 1.26 1.26 v -1.05 -1.05 h 1.155 1.155 V 79.275 78.12 h 1.05 1.05 V 75.6 73.08 H 34.44 33.39 V 71.925 70.77 H 32.235 31.08 V 69.72 68.67 H 29.82 28.56 V 67.515 66.36 H 27.3 26.04 V 65.1 63.84 H 24.885 23.73 V 61.425 59.01 h 3.675 3.675 v 1.155 1.155 h 1.155 1.155 v 1.26 1.26 h 1.05 1.05 v 1.26 1.26 h 1.155 1.155 v 1.155 1.155 h 1.26 1.26 v 1.05 1.05 h 1.26 1.26 v -1.05 -1.05 h 1.155 1.155 V 67.515 66.36 h 1.05 1.05 V 65.1 63.84 H 46.2 45.15 V 62.58 61.32 H 43.995 42.84 V 60.165 59.01 H 41.58 40.32 V 57.96 56.91 H 39.06 37.8 V 55.755 54.6 H 36.645 35.49 V 50.925 47.25 h 3.675 3.675 v 1.155 1.155 h 1.155 1.155 v 1.26 1.26 h 1.05 1.05 v 1.26 1.26 h 1.155 1.155 v 1.155 1.155 h 1.26 1.26 v 1.05 1.05 h 1.26 1.26 v -1.05 -1.05 h 1.155 1.155 V 55.755 54.6 h 1.05 1.05 V 53.34 52.08 H 57.96 56.91 V 50.82 49.56 H 55.755 54.6 V 48.405 47.25 H 53.34 52.08 V 46.2 45.15 H 50.82 49.56 V 43.995 42.84 H 48.405 47.25 V 39.165 35.49 h 2.415 2.415 v 1.155 1.155 h 1.26 1.26 v 1.26 1.26 h 1.155 1.155 v 1.26 1.26 h 1.05 1.05 v 1.155 1.155 h 1.155 1.155 v 1.05 1.05 h 2.52 2.52 V 46.2 45.15 h 1.155 1.155 V 43.995 42.84 h 1.05 1.05 V 41.58 40.32 H 69.72 68.67 V 39.06 37.8 H 67.515 66.36 V 36.645 35.49 H 65.1 63.84 V 34.44 33.39 H 62.58 61.32 V 32.235 31.08 H 60.165 59.01 v -2.52 -2.52 h 1.155 1.155 V 24.885 23.73 h 1.26 1.26 v 1.155 1.155 h 1.26 1.26 v 1.26 1.26 h 1.155 1.155 v 1.26 1.26 h 1.05 1.05 v 1.155 1.155 h 1.155 1.155 v 1.05 1.05 h 2.52 2.52 v -1.05 -1.05 h 1.155 1.155 V 30.975 28.56 H 79.275 78.12 V 27.3 26.04 H 76.86 75.6 V 24.885 23.73 H 74.34 73.08 V 22.68 21.63 H 71.925 70.77 V 17.955 14.28 h 3.675 3.675 v 1.26 1.26 h 1.155 1.155 v 1.26 1.26 h 1.05 1.05 v 1.155 1.155 h 1.155 1.155 v 1.05 1.05 h 2.52 2.52 v -1.05 -1.05 h 1.155 1.155 V 19.215 16.8 H 91.035 89.88 V 15.54 14.28 H 88.62 87.36 V 13.125 11.97 H 86.1 84.84 V 10.92 9.87 H 83.685 82.53 V 8.715 7.56 H 81.48 80.43 V 6.3 5.04 h 1.05 1.05 V 3.78 2.52 h 2.415 2.415 v 1.26 1.26 h 1.26 1.26 V 6.3 7.56 h 1.155 1.155 V 8.715 9.87 h 1.05 1.05 v 1.05 1.05 h 1.155 1.155 v 1.155 1.155 h 1.26 1.26 V 13.125 11.97 h 2.415 2.415 V 10.92 9.87 h 1.05 1.05 v 1.05 1.05 h 1.155 1.155 v 1.155 1.155 h 1.26 1.26 V 13.125 11.97 h 1.26 1.26 V 10.92 9.87 h 1.155 1.155 V 8.715 7.56 h 1.05 1.05 V 6.3 5.04 h 1.155 1.155 V 3.78 2.52 h 3.675 3.675 V 6.195 9.87 h -1.155 -1.155 v 1.05 1.05 h -1.26 -1.26 v 1.155 1.155 h -1.26 -1.26 v 1.26 1.26 h -1.155 -1.155 v 1.26 1.26 h -1.05 -1.05 v 1.155 1.155 h 1.05 1.05 v 1.05 1.05 h 1.155 1.155 v 1.155 1.155 h 1.26 1.26 V 24.885 23.73 h 1.26 1.26 v -1.05 -1.05 h 1.155 1.155 V 20.475 19.32 h 1.05 1.05 V 18.06 16.8 h 1.155 1.155 v -1.26 -1.26 h 3.675 3.675 v 2.52 2.52 h -1.155 -1.155 v 1.155 1.155 h -1.26 -1.26 v 1.05 1.05 h -1.26 -1.26 v 1.155 1.155 h -1.155 -1.155 v 1.26 1.26 h -1.05 -1.05 v 2.415 2.415 h 1.05 1.05 v 1.05 1.05 h 3.675 3.675 v -1.05 -1.05 h 1.155 1.155 V 32.235 31.08 h 1.05 1.05 v -1.26 -1.26 h 1.155 1.155 V 27.3 26.04 h 1.26 1.26 V 24.885 23.73 h 1.26 1.26 v 1.155 1.155 h 1.155 1.155 v 2.52 2.52 h -1.155 -1.155 v 1.155 1.155 h -1.26 -1.26 v 1.05 1.05 h -1.26 -1.26 v 1.155 1.155 h -1.155 -1.155 v 1.26 1.26 h -1.05 -1.05 v 2.415 2.415 h 1.05 1.05 v 1.05 1.05 h 2.415 2.415 V 46.2 45.15 h 1.26 1.26 V 43.995 42.84 h 1.155 1.155 v -1.26 -1.26 h 1.05 1.05 V 39.06 37.8 h 1.155 1.155 V 36.645 35.49 h 2.52 2.52 v 1.155 1.155 h 1.155 1.155 v 2.52 2.52 h -1.155 -1.155 v 1.155 1.155 h -1.26 -1.26 v 1.05 1.05 h -1.26 -1.26 v 1.155 1.155 h -1.155 -1.155 v 1.26 1.26 h -1.05 -1.05 v 2.415 2.415 h 1.05 1.05 v 1.05 1.05 h 2.415 2.415 v -1.05 -1.05 h 1.26 1.26 V 55.755 54.6 h 1.155 1.155 v -1.26 -1.26 h 1.05 1.05 v -1.26 -1.26 h 1.155 1.155 V 48.405 47.25 h 2.52 2.52 v 1.155 1.155 h 1.155 1.155 v 1.26 1.26 h -1.155 -1.155 v 1.26 1.26 h -1.26 -1.26 v 1.155 1.155 h -1.26 -1.26 v 1.05 1.05 h -1.155 -1.155 v 1.155 1.155 h -1.05 -1.05 v 3.675 3.675 h 1.05 1.05 v 1.05 1.05 h 2.415 2.415 v -1.05 -1.05 h 1.26 1.26 V 67.515 66.36 h 1.155 1.155 V 65.1 63.84 h 1.05 1.05 v -1.26 -1.26 h 1.155 1.155 V 60.165 59.01 h 2.52 2.52 v 3.675 3.675 h -1.26 -1.26 v 1.155 1.155 h -1.26 -1.26 v 1.05 1.05 h -1.155 -1.155 v 1.155 1.155 h -1.05 -1.05 v 1.26 1.26 h -1.155 -1.155 v 1.26 1.26 h 1.155 1.155 v 1.155 1.155 h 1.05 1.05 v 1.05 1.05 h 1.155 1.155 v -1.05 -1.05 h 1.26 1.26 V 79.275 78.12 h 1.26 1.26 V 76.86 75.6 h 1.155 1.155 v -1.26 -1.26 h 1.05 1.05 V 71.925 70.77 h 3.675 3.675 v 3.675 3.675 h -1.26 -1.26 v 1.155 1.155 h -1.26 -1.26 v 1.05 1.05 h -1.155 -1.155 v 1.155 1.155 h -1.05 -1.05 v 1.26 1.26 h -1.155 -1.155 v 1.26 1.26 h 1.155 1.155 v 1.155 1.155 h 1.05 1.05 v 1.05 1.05 h 1.155 1.155 v -1.05 -1.05 h 1.26 1.26 V 91.035 89.88 h 1.26 1.26 v -1.26 -1.26 h 1.155 1.155 V 86.1 84.84 h 1.05 1.05 V 83.685 82.53 h 3.675 3.675 v 2.415 2.415 h -1.26 -1.26 v 1.26 1.26 h -1.26 -1.26 v 1.155 1.155 h -1.155 -1.155 v 1.05 1.05 h -1.05 -1.05 v 1.155 1.155 h -1.155 -1.155 v 2.52 2.52 h 1.155 1.155 v 3.36 3.36 h -1.155 -1.155 v 2.52 2.52 h 1.155 1.155 v 1.155 1.155 h 1.05 1.05 v 1.05 1.05 h 1.155 1.155 v 1.155 1.155 h 1.26 1.26 v 1.26 1.26 h 1.26 1.26 v 2.415 2.415 h -3.675 -3.675 v -1.155 -1.155 h -1.05 -1.05 v -1.26 -1.26 h -1.155 -1.155 v -1.26 -1.26 h -1.26 -1.26 v -1.155 -1.155 h -1.26 -1.26 v -1.05 -1.05 h -1.155 -1.155 v 1.05 1.05 h -1.05 -1.05 v 1.155 1.155 h -1.155 -1.155 v 1.26 1.26 h 1.155 1.155 v 1.26 1.26 h 1.05 1.05 v 1.155 1.155 h 1.155 1.155 v 1.05 1.05 h 1.26 1.26 v 1.155 1.155 h 1.26 1.26 v 3.675 3.675 h -3.675 -3.675 v -1.155 -1.155 h -1.05 -1.05 v -1.26 -1.26 h -1.155 -1.155 v -1.26 -1.26 h -1.26 -1.26 v -1.155 -1.155 h -1.26 -1.26 v -1.05 -1.05 h -1.155 -1.155 v 1.05 1.05 h -1.05 -1.05 v 1.155 1.155 h -1.155 -1.155 v 1.26 1.26 h 1.155 1.155 v 1.26 1.26 h 1.05 1.05 v 1.155 1.155 h 1.155 1.155 v 1.05 1.05 h 1.26 1.26 v 1.155 1.155 h 1.26 1.26 v 3.675 3.675 h -2.52 -2.52 v -1.155 -1.155 h -1.155 -1.155 v -1.26 -1.26 h -1.05 -1.05 v -1.26 -1.26 h -1.155 -1.155 v -1.155 -1.155 h -1.26 -1.26 v -1.05 -1.05 h -2.415 -2.415 v 1.05 1.05 h -1.05 -1.05 v 3.675 3.675 h 1.05 1.05 v 1.155 1.155 h 1.155 1.155 v 1.05 1.05 h 1.26 1.26 v 1.155 1.155 h 1.26 1.26 v 1.26 1.26 h 1.155 1.155 v 1.26 1.26 h -1.155 -1.155 v 1.155 1.155 h -2.52 -2.52 v -1.155 -1.155 h -1.155 -1.155 v -1.26 -1.26 h -1.05 -1.05 v -1.26 -1.26 h -1.155 -1.155 v -1.155 -1.155 h -1.26 -1.26 v -1.05 -1.05 h -2.415 -2.415 v 1.05 1.05 h -1.05 -1.05 v 2.415 2.415 h 1.05 1.05 v 1.26 1.26 h 1.155 1.155 v 1.155 1.155 h 1.26 1.26 v 1.05 1.05 h 1.26 1.26 v 1.155 1.155 h 1.155 1.155 v 2.52 2.52 h -1.155 -1.155 v 1.155 1.155 h -2.52 -2.52 v -1.155 -1.155 h -1.155 -1.155 v -1.26 -1.26 h -1.05 -1.05 v -1.26 -1.26 h -1.155 -1.155 v -1.155 -1.155 h -1.26 -1.26 v -1.05 -1.05 h -2.415 -2.415 v 1.05 1.05 h -1.05 -1.05 v 2.415 2.415 h 1.05 1.05 v 1.26 1.26 h 1.155 1.155 v 1.155 1.155 h 1.26 1.26 v 1.05 1.05 h 1.26 1.26 v 1.155 1.155 h 1.155 1.155 v 2.52 2.52 h -1.155 -1.155 v 1.155 1.155 h -1.26 -1.26 v -1.155 -1.155 h -1.26 -1.26 v -1.26 -1.26 h -1.155 -1.155 v -1.26 -1.26 h -1.05 -1.05 v -1.155 -1.155 h -1.155 -1.155 v -1.05 -1.05 h -3.675 -3.675 v 1.05 1.05 h -1.05 -1.05 v 2.415 2.415 h 1.05 1.05 v 1.26 1.26 h 1.155 1.155 v 1.155 1.155 h 1.26 1.26 v 1.05 1.05 h 1.26 1.26 v 1.155 1.155 h 1.155 1.155 v 2.52 2.52 h -3.675 -3.675 v -1.26 -1.26 h -1.155 -1.155 v -1.26 -1.26 h -1.05 -1.05 v -1.155 -1.155 h -1.155 -1.155 v -1.05 -1.05 h -1.26 -1.26 v -1.155 -1.155 h -1.26 -1.26 v 1.155 1.155 h -1.155 -1.155 v 1.05 1.05 h -1.05 -1.05 v 1.155 1.155 h 1.05 1.05 v 1.26 1.26 h 1.155 1.155 v 1.26 1.26 h 1.26 1.26 v 1.155 1.155 h 1.26 1.26 v 1.05 1.05 h 1.155 1.155 v 3.675 3.675 h -3.675 -3.675 v -1.26 -1.26 h -1.155 -1.155 v -1.26 -1.26 h -1.05 -1.05 v -1.155 -1.155 h -1.155 -1.155 v -1.05 -1.05 h -1.26 -1.26 v -1.155 -1.155 h -1.26 -1.26 v 1.155 1.155 h -1.155 -1.155 v 1.05 1.05 H 105 103.95 v -1.05 -1.05 h -2.415 -2.415 v -1.155 -1.155 H 97.86 96.6 v 1.155 1.155 H 95.445 94.29 v 1.05 1.05 h -1.05 -1.05 v 1.155 1.155 H 91.035 89.88 v 1.26 1.26 h -1.26 -1.26 v 1.26 1.26 H 84.945 82.53 Z m 23.52,-16.695 v -1.155 h 1.155 1.155 v -1.05 -1.05 h 1.26 1.26 v -1.155 -1.155 h 1.26 1.26 v -1.26 -1.26 h 1.155 1.155 v -1.26 -1.26 h 1.05 1.05 v -1.155 -1.155 h 1.155 1.155 v -1.05 -1.05 h 1.26 1.26 v -1.155 -1.155 h 1.26 1.26 v -1.26 -1.26 h 1.155 1.155 v -1.26 -1.26 h 1.05 1.05 v -1.155 -1.155 h 1.155 1.155 v -1.05 -1.05 h 1.26 1.26 v -1.155 -1.155 h 1.26 1.26 v -1.26 -1.26 h 1.155 1.155 v -1.26 -1.26 h 1.05 1.05 v -1.155 -1.155 h 1.155 1.155 v -1.05 -1.05 h 1.26 1.26 v -1.155 -1.155 h 1.26 1.26 v -1.26 -1.26 h 1.155 1.155 v -1.26 -1.26 h 1.05 1.05 v -1.155 -1.155 h 1.155 1.155 v -1.05 -1.05 h 1.26 1.26 v -1.155 -1.155 h 1.26 1.26 v -1.26 -1.26 h 1.155 1.155 v -1.26 -1.26 h 1.05 1.05 v -1.155 -1.155 h 1.155 1.155 v -1.05 -1.05 h 1.26 1.26 v -1.155 -1.155 h 1.26 1.26 v -1.26 -1.26 h 1.155 1.155 v -1.26 -1.26 h 1.05 1.05 v -1.155 -1.155 h 1.155 1.155 v -1.05 -1.05 h 1.26 1.26 v -1.155 -1.155 h 1.26 1.26 v -1.26 -1.26 h 1.155 1.155 v -1.26 -1.26 h 1.05 1.05 v -1.155 -1.155 h 1.155 1.155 V 105 103.95 h -1.155 -1.155 v -1.155 -1.155 h -1.05 -1.05 v -1.26 -1.26 h -1.155 -1.155 V 97.86 96.6 h -1.26 -1.26 V 95.445 94.29 h -1.26 -1.26 v -1.05 -1.05 h -1.155 -1.155 V 91.035 89.88 h -1.05 -1.05 V 88.62 87.36 H 173.355 172.2 V 86.1 84.84 h -1.26 -1.26 V 83.685 82.53 h -1.26 -1.26 v -1.05 -1.05 h -1.155 -1.155 V 79.275 78.12 h -1.05 -1.05 V 76.86 75.6 h -1.155 -1.155 v -1.26 -1.26 h -1.26 -1.26 V 71.925 70.77 h -1.26 -1.26 v -1.05 -1.05 h -1.155 -1.155 V 67.515 66.36 h -1.05 -1.05 V 65.1 63.84 h -1.155 -1.155 v -1.26 -1.26 h -1.26 -1.26 V 60.165 59.01 h -1.26 -1.26 v -1.05 -1.05 h -1.155 -1.155 V 55.755 54.6 h -1.05 -1.05 v -1.26 -1.26 h -1.155 -1.155 v -1.26 -1.26 h -1.26 -1.26 V 48.405 47.25 h -1.26 -1.26 V 46.2 45.15 h -1.155 -1.155 V 43.995 42.84 h -1.05 -1.05 v -1.26 -1.26 h -1.155 -1.155 V 39.06 37.8 h -1.26 -1.26 V 36.645 35.49 h -1.26 -1.26 v -1.05 -1.05 h -1.155 -1.155 V 32.235 31.08 h -1.05 -1.05 V 29.82 28.56 H 114.555 113.4 V 27.3 26.04 h -1.26 -1.26 V 24.885 23.73 h -1.26 -1.26 v -1.05 -1.05 h -1.155 -1.155 V 20.475 19.32 H 105 103.95 v 1.155 1.155 h -1.155 -1.155 v 1.05 1.05 h -1.26 -1.26 v 1.155 1.155 H 97.86 96.6 v 1.26 1.26 H 95.445 94.29 v 1.26 1.26 h -1.05 -1.05 v 1.155 1.155 H 91.035 89.88 v 1.05 1.05 H 88.62 87.36 V 36.645 37.8 H 86.1 84.84 v 1.26 1.26 H 83.685 82.53 v 1.26 1.26 h -1.05 -1.05 v 1.155 1.155 H 79.275 78.12 v 1.05 1.05 H 76.86 75.6 v 1.155 1.155 h -1.26 -1.26 v 1.26 1.26 H 71.925 70.77 v 1.26 1.26 h -1.05 -1.05 v 1.155 1.155 H 67.515 66.36 v 1.05 1.05 H 65.1 63.84 v 1.155 1.155 h -1.26 -1.26 v 1.26 1.26 H 60.165 59.01 v 1.26 1.26 h -1.05 -1.05 v 1.155 1.155 H 55.755 54.6 v 1.05 1.05 h -1.26 -1.26 v 1.155 1.155 h -1.26 -1.26 v 1.26 1.26 H 48.405 47.25 v 1.26 1.26 H 46.2 45.15 v 1.155 1.155 H 43.995 42.84 v 1.05 1.05 h -1.26 -1.26 v 1.155 1.155 H 39.06 37.8 v 1.26 1.26 H 36.645 35.49 v 1.26 1.26 h -1.05 -1.05 v 1.155 1.155 H 32.235 31.08 v 1.05 1.05 H 29.82 28.56 V 95.445 96.6 H 27.3 26.04 v 1.26 1.26 H 24.885 23.73 v 1.26 1.26 h -1.05 -1.05 v 1.155 1.155 H 20.475 19.32 v 1.05 1.05 h 1.155 1.155 v 1.155 1.155 h 1.05 1.05 v 1.26 1.26 h 1.155 1.155 v 1.26 1.26 h 1.26 1.26 v 1.155 1.155 h 1.26 1.26 v 1.05 1.05 h 1.155 1.155 v 1.155 1.155 h 1.05 1.05 v 1.26 1.26 h 1.155 1.155 v 1.26 1.26 h 1.26 1.26 v 1.155 1.155 h 1.26 1.26 v 1.05 1.05 h 1.155 1.155 v 1.155 1.155 h 1.05 1.05 v 1.26 1.26 h 1.155 1.155 v 1.26 1.26 h 1.26 1.26 v 1.155 1.155 h 1.26 1.26 v 1.05 1.05 h 1.155 1.155 v 1.155 1.155 h 1.05 1.05 v 1.26 1.26 h 1.155 1.155 v 1.26 1.26 h 1.26 1.26 v 1.155 1.155 h 1.26 1.26 v 1.05 1.05 h 1.155 1.155 v 1.155 1.155 h 1.05 1.05 v 1.26 1.26 h 1.155 1.155 v 1.26 1.26 h 1.26 1.26 v 1.155 1.155 h 1.26 1.26 v 1.05 1.05 h 1.155 1.155 v 1.155 1.155 h 1.05 1.05 v 1.26 1.26 h 1.155 1.155 v 1.26 1.26 h 1.26 1.26 v 1.155 1.155 h 1.26 1.26 v 1.05 1.05 h 1.155 1.155 v 1.155 1.155 h 1.05 1.05 v 1.26 1.26 h 1.155 1.155 v 1.26 1.26 h 1.26 1.26 v 1.155 1.155 h 1.26 1.26 v 1.05 1.05 h 1.155 1.155 v 1.155 1.155 h 1.05 1.05 z M 101.64,163.8 v -1.05 h -1.26 -1.26 v -1.155 -1.155 H 97.86 96.6 v -1.26 -1.26 H 95.445 94.29 v -1.26 -1.26 h -1.05 -1.05 v -1.155 -1.155 H 91.035 89.88 v -1.05 -1.05 h -1.26 -1.26 v -1.155 -1.155 H 86.1 84.84 v -1.26 -1.26 H 83.685 82.53 v -1.26 -1.26 h -1.05 -1.05 v -1.155 -1.155 H 79.275 78.12 v -1.05 -1.05 H 76.86 75.6 v -1.155 -1.155 h -1.26 -1.26 v -1.26 -1.26 H 71.925 70.77 v -1.26 -1.26 h -1.05 -1.05 v -1.155 -1.155 H 67.515 66.36 v -1.05 -1.05 H 65.1 63.84 v -1.155 -1.155 h -1.26 -1.26 v -1.26 -1.26 H 60.165 59.01 v -1.26 -1.26 h -1.05 -1.05 v -1.155 -1.155 H 55.755 54.6 v -1.05 -1.05 h -1.26 -1.26 v -1.155 -1.155 h -1.26 -1.26 v -1.26 -1.26 H 48.405 47.25 v -1.26 -1.26 H 46.2 45.15 V 105 101.64 h 1.05 1.05 v -1.26 -1.26 h 1.155 1.155 V 97.86 96.6 h 1.26 1.26 V 95.445 94.29 h 1.26 1.26 v -1.05 -1.05 h 1.155 1.155 V 91.035 89.88 h 1.05 1.05 v -1.26 -1.26 h 1.155 1.155 V 86.1 84.84 h 1.26 1.26 V 83.685 82.53 h 1.26 1.26 v -1.05 -1.05 h 1.155 1.155 V 79.275 78.12 h 1.05 1.05 V 76.86 75.6 h 1.155 1.155 v -1.26 -1.26 h 1.26 1.26 V 71.925 70.77 h 1.26 1.26 v -1.05 -1.05 h 1.155 1.155 V 67.515 66.36 h 1.05 1.05 V 65.1 63.84 h 1.155 1.155 v -1.26 -1.26 h 1.26 1.26 V 60.165 59.01 h 1.26 1.26 v -1.05 -1.05 h 1.155 1.155 V 55.755 54.6 h 1.05 1.05 v -1.26 -1.26 h 1.155 1.155 v -1.26 -1.26 h 1.26 1.26 V 48.405 47.25 h 1.26 1.26 V 46.2 45.15 h 3.36 3.36 v 1.05 1.05 h 1.26 1.26 v 1.155 1.155 h 1.26 1.26 v 1.26 1.26 h 1.155 1.155 v 1.26 1.26 h 1.05 1.05 v 1.155 1.155 h 1.155 1.155 v 1.05 1.05 h 1.26 1.26 v 1.155 1.155 h 1.26 1.26 v 1.26 1.26 h 1.155 1.155 v 1.26 1.26 h 1.05 1.05 v 1.155 1.155 h 1.155 1.155 v 1.05 1.05 h 1.26 1.26 v 1.155 1.155 h 1.26 1.26 v 1.26 1.26 h 1.155 1.155 v 1.26 1.26 h 1.05 1.05 v 1.155 1.155 h 1.155 1.155 v 1.05 1.05 h 1.26 1.26 v 1.155 1.155 h 1.26 1.26 v 1.26 1.26 h 1.155 1.155 v 1.26 1.26 h 1.05 1.05 v 1.155 1.155 h 1.155 1.155 v 1.05 1.05 h 1.26 1.26 v 1.155 1.155 h 1.26 1.26 v 1.26 1.26 h 1.155 1.155 v 1.26 1.26 h 1.05 1.05 v 3.36 3.36 h -1.05 -1.05 v 1.26 1.26 h -1.155 -1.155 v 1.26 1.26 h -1.26 -1.26 v 1.155 1.155 h -1.26 -1.26 v 1.05 1.05 h -1.155 -1.155 v 1.155 1.155 h -1.05 -1.05 v 1.26 1.26 h -1.155 -1.155 v 1.26 1.26 h -1.26 -1.26 v 1.155 1.155 h -1.26 -1.26 v 1.05 1.05 h -1.155 -1.155 v 1.155 1.155 h -1.05 -1.05 v 1.26 1.26 h -1.155 -1.155 v 1.26 1.26 h -1.26 -1.26 v 1.155 1.155 h -1.26 -1.26 v 1.05 1.05 h -1.155 -1.155 v 1.155 1.155 h -1.05 -1.05 v 1.26 1.26 h -1.155 -1.155 v 1.26 1.26 h -1.26 -1.26 v 1.155 1.155 h -1.26 -1.26 v 1.05 1.05 h -1.155 -1.155 v 1.155 1.155 h -1.05 -1.05 v 1.26 1.26 h -1.155 -1.155 v 1.26 1.26 h -1.26 -1.26 v 1.155 1.155 h -1.26 -1.26 v 1.05 1.05 H 105 101.64 Z m 4.41,-9.555 v -1.155 h 1.155 1.155 v -1.05 -1.05 h 1.26 1.26 v -1.155 -1.155 h 1.26 1.26 v -1.26 -1.26 h 1.155 1.155 v -1.26 -1.26 h 1.05 1.05 v -1.155 -1.155 h 1.155 1.155 v -1.05 -1.05 h 1.26 1.26 v -1.155 -1.155 h 1.26 1.26 v -1.26 -1.26 h 1.155 1.155 v -1.26 -1.26 h 1.05 1.05 v -1.155 -1.155 h 1.155 1.155 v -1.05 -1.05 h 1.26 1.26 v -1.155 -1.155 h 1.26 1.26 v -1.26 -1.26 h 1.155 1.155 v -1.26 -1.26 h 1.05 1.05 v -1.155 -1.155 h 1.155 1.155 v -1.05 -1.05 h 1.26 1.26 v -1.155 -1.155 h 1.26 1.26 v -1.26 -1.26 h 1.155 1.155 v -1.26 -1.26 h 1.05 1.05 v -1.155 -1.155 h 1.155 1.155 V 105 103.95 h -1.155 -1.155 v -1.155 -1.155 h -1.05 -1.05 v -1.26 -1.26 h -1.155 -1.155 V 97.86 96.6 h -1.26 -1.26 V 95.445 94.29 h -1.26 -1.26 v -1.05 -1.05 h -1.155 -1.155 V 91.035 89.88 h -1.05 -1.05 v -1.26 -1.26 h -1.155 -1.155 V 86.1 84.84 h -1.26 -1.26 V 83.685 82.53 h -1.26 -1.26 v -1.05 -1.05 h -1.155 -1.155 V 79.275 78.12 h -1.05 -1.05 V 76.86 75.6 h -1.155 -1.155 v -1.26 -1.26 h -1.26 -1.26 V 71.925 70.77 h -1.26 -1.26 v -1.05 -1.05 h -1.155 -1.155 V 67.515 66.36 h -1.05 -1.05 V 65.1 63.84 h -1.155 -1.155 v -1.26 -1.26 h -1.26 -1.26 V 60.165 59.01 h -1.26 -1.26 v -1.05 -1.05 h -1.155 -1.155 V 55.755 54.6 h -2.205 -2.205 v 1.155 1.155 h -1.26 -1.26 v 1.05 1.05 H 97.86 96.6 v 1.155 1.155 H 95.445 94.29 v 1.26 1.26 h -1.05 -1.05 v 1.26 1.26 H 91.035 89.88 v 1.155 1.155 h -1.26 -1.26 v 1.05 1.05 H 86.1 84.84 v 1.155 1.155 H 83.685 82.53 v 1.26 1.26 h -1.05 -1.05 v 1.26 1.26 H 79.275 78.12 v 1.155 1.155 H 76.86 75.6 v 1.05 1.05 h -1.26 -1.26 v 1.155 1.155 H 71.925 70.77 v 1.26 1.26 h -1.05 -1.05 v 1.26 1.26 H 67.515 66.36 v 1.155 1.155 H 65.1 63.84 v 1.05 1.05 H 62.58 61.32 V 95.445 96.6 H 60.165 59.01 v 1.26 1.26 h -1.05 -1.05 v 1.26 1.26 H 55.755 54.6 v 3.36 3.36 h 1.155 1.155 v 1.26 1.26 h 1.05 1.05 v 1.26 1.26 h 1.155 1.155 v 1.155 1.155 h 1.26 1.26 v 1.05 1.05 h 1.26 1.26 v 1.155 1.155 h 1.155 1.155 v 1.26 1.26 h 1.05 1.05 v 1.26 1.26 h 1.155 1.155 v 1.155 1.155 h 1.26 1.26 v 1.05 1.05 h 1.26 1.26 v 1.155 1.155 h 1.155 1.155 v 1.26 1.26 h 1.05 1.05 v 1.26 1.26 h 1.155 1.155 v 1.155 1.155 h 1.26 1.26 v 1.05 1.05 h 1.26 1.26 v 1.155 1.155 h 1.155 1.155 v 1.26 1.26 h 1.05 1.05 v 1.26 1.26 h 1.155 1.155 v 1.155 1.155 h 1.26 1.26 v 1.05 1.05 h 1.26 1.26 v 1.155 1.155 h 2.205 2.205 z"
       id="path6708"
       inkscape:label="diamond" /><path
       style="display:inline;fill:#ffbc42;fill-opacity:1;stroke-width:0.21;filter:url(#filter6672)"
       d="m 66.15,191.205 v -2.835 h 2.835 2.835 V 168.945 149.52 H 68.985 66.15 v -19.53 -19.53 h 2.835 2.835 V 102.165 93.87 H 68.985 66.15 v 2.835 2.835 h -2.73 -2.73 v 2.73 2.73 H 57.855 55.02 v 2.73 2.73 h -2.73 -2.73 v 5.565 5.565 H 46.725 43.89 v 5.565 5.565 h -2.73 -2.73 v 2.835 2.835 H 35.595 32.76 V 124.425 110.46 h 2.835 2.835 V 105 99.54 h 2.73 2.73 V 96.705 93.87 h 2.835 2.835 v -2.73 -2.73 h 2.73 2.73 V 85.575 82.74 h 2.835 2.835 v -2.73 -2.73 h 2.73 2.73 V 74.445 71.61 h 2.835 2.835 V 66.045 60.48 h 2.73 2.73 v -2.73 -2.73 h 2.835 2.835 V 52.185 49.35 h 2.73 2.73 V 43.785 38.22 H 77.28 66.15 V 35.49 32.76 H 63.42 60.69 V 29.925 27.09 h 8.295 8.295 v -2.73 -2.73 h 5.565 5.565 V 18.795 15.96 h 13.86 13.86 v 2.835 2.835 h 2.835 2.835 v 5.565 5.565 h 2.73 2.73 v 8.295 8.295 h 2.835 2.835 v 2.835 2.835 h 2.73 2.73 v 5.565 5.565 h 2.835 2.835 v 2.73 2.73 h 2.73 2.73 v 2.835 2.835 h 2.835 2.835 v 2.73 2.73 h 2.73 2.73 v 5.565 5.565 h 2.835 2.835 V 99.435 105 h 2.73 2.73 v 5.565 5.565 h 2.835 2.835 v 11.13 11.13 h -5.565 -5.565 v -2.835 -2.835 h -2.835 -2.835 v -5.565 -5.565 h -2.73 -2.73 v -5.565 -5.565 h -2.835 -2.835 V 107.73 105 h -2.73 -2.73 v -2.73 -2.73 h -2.835 -2.835 v 5.46 5.46 h -2.73 -2.73 v 13.965 13.965 h -2.835 -2.835 v 8.295 8.295 h -2.73 -2.73 v 5.565 5.565 h -2.835 -2.835 v 8.4 8.4 h -2.73 -2.73 v 2.73 2.73 h 5.565 5.565 v 2.835 2.835 H 107.94 94.08 v -2.835 -2.835 h 2.73 2.73 v -8.295 -8.295 H 91.245 82.95 v 5.565 5.565 h 2.73 2.73 v 5.565 5.565 H 77.28 66.15 Z M 99.54,29.925 V 27.09 h -2.73 -2.73 v 2.835 2.835 h 2.73 2.73 z"
       id="path3644"
       inkscape:label="penguinGlow" /><rect
       style="display:inline;fill:#1079c6;fill-opacity:0.99972069;stroke-width:0.265;stroke-dasharray:none;filter:url(#filter17782)"
       id="rect1930"
       width="6.1509824"
       height="6.0467081"
       x="93.710762"
       y="26.926596"
       inkscape:label="eye" /><path
       style="display:inline;fill:#000000;stroke-width:0.21;fill-opacity:0.94"
       d="m 66.15,191.205 v -2.835 h 2.835 2.835 V 168.945 149.52 H 68.985 66.15 v -19.53 -19.53 h 2.835 2.835 V 102.165 93.87 H 68.985 66.15 v 2.835 2.835 h -2.73 -2.73 v 2.73 2.73 H 57.855 55.02 v 2.73 2.73 h -2.73 -2.73 v 5.565 5.565 H 46.725 43.89 v 5.565 5.565 h -2.73 -2.73 v 2.835 2.835 H 35.595 32.76 V 124.425 110.46 h 2.835 2.835 V 105 99.54 h 2.73 2.73 V 96.705 93.87 h 2.835 2.835 v -2.73 -2.73 h 2.73 2.73 V 85.575 82.74 h 2.835 2.835 v -2.73 -2.73 h 2.73 2.73 V 74.445 71.61 h 2.835 2.835 V 66.045 60.48 h 2.73 2.73 v -2.73 -2.73 h 2.835 2.835 V 52.185 49.35 h 2.73 2.73 V 43.785 38.22 H 77.28 66.15 V 35.49 32.76 H 63.42 60.69 V 29.925 27.09 h 8.295 8.295 v -2.73 -2.73 h 5.565 5.565 V 18.795 15.96 h 13.86 13.86 v 2.835 2.835 h 2.835 2.835 v 5.565 5.565 h 2.73 2.73 v 8.295 8.295 h 2.835 2.835 v 2.835 2.835 h 2.73 2.73 v 5.565 5.565 h 2.835 2.835 v 2.73 2.73 h 2.73 2.73 v 2.835 2.835 h 2.835 2.835 v 2.73 2.73 h 2.73 2.73 v 5.565 5.565 h 2.835 2.835 V 99.435 105 h 2.73 2.73 v 5.565 5.565 h 2.835 2.835 v 11.13 11.13 h -5.565 -5.565 v -2.835 -2.835 h -2.835 -2.835 v -5.565 -5.565 h -2.73 -2.73 v -5.565 -5.565 h -2.835 -2.835 V 107.73 105 h -2.73 -2.73 v -2.73 -2.73 h -2.835 -2.835 v 5.46 5.46 h -2.73 -2.73 v 13.965 13.965 h -2.835 -2.835 v 8.295 8.295 h -2.73 -2.73 v 5.565 5.565 h -2.835 -2.835 v 8.4 8.4 h -2.73 -2.73 v 2.73 2.73 h 5.565 5.565 v 2.835 2.835 H 107.94 94.08 v -2.835 -2.835 h 2.73 2.73 v -8.295 -8.295 H 91.245 82.95 v 5.565 5.565 h 2.73 2.73 v 5.565 5.565 H 77.28 66.15 Z M 99.54,29.925 V 27.09 h -2.73 -2.73 v 2.835 2.835 h 2.73 2.73 z"
       id="path470"
       inkscape:label="penguin" /></g></svg>
